# xmcd
#
# Track frame offsets:
#	150
#	15438
#	30238
#	55830
#	65815
#	81550
#	99960
#	117553
#	139280
#	157345
#	173940
#	196360
#	216475
#	234813
#	244990
#	257463
#	278850
#
# Disc length: 3947 seconds
#
# Revision: 1
# Processed by: cddbd v1.5.1PL0 Copyright (c) Steve Scherf et al.
# Submitted via: CDex 1.50Beta5
#
DISCID=f70f6911
DTITLE=エンジェリッシモ - カノン (1)
DYEAR=1900
DGENRE=Classical
TTITLE0=クープラン
TTITLE1=協奏曲 春より第一楽章アレグロ
TTITLE2=G線上のアリア
TTITLE3=プレリュード ハ長調
TTITLE4=ラルゴ
TTITLE5=ポロネーズ
TTITLE6=アリア
TTITLE7=ハープ協奏曲 変ロ長調
TTITLE8=目覚めよと呼ぶ声が聞こえ
TTITLE9=フルート協奏曲 ニ長調ごしきひわより第三楽章
TTITLE10=アダージョ
TTITLE11=小フーガ ト短長
TTITLE12=アラホーンパイプ 水上の音楽より
TTITLE13=シチリアーノ
TTITLE14=ピッコロ協奏曲 ハ長調より 第三楽章
TTITLE15=サラバンド
TTITLE16=主よ、人の望みの喜びよ
EXTD=
EXTT0=
EXTT1=
EXTT2=
EXTT3=
EXTT4=
EXTT5=
EXTT6=
EXTT7=
EXTT8=
EXTT9=
EXTT10=
EXTT11=
EXTT12=
EXTT13=
EXTT14=
EXTT15=
EXTT16=
PLAYORDER=
